<?xml version="1.0" encoding="utf-8"?>
<!-- Generator: Adobe Illustrator 26.3.1, SVG Export Plug-In . SVG Version: 6.00 Build 0)  -->
<svg version="1.1" id="Layer_1" xmlns="http://www.w3.org/2000/svg" xmlns:xlink="http://www.w3.org/1999/xlink" x="0px" y="0px"
	 viewBox="0 0 600 600" style="enable-background:new 0 0 600 600;" xml:space="preserve">
<style type="text/css">
	.st0{fill:#545454;}
	.st1{fill:#D175C7;}
</style>
<path class="st0" d="M-379,90h105v52.5L-379,90z M-169,90v105h-52.5L-169,90z M-169,510h-105v-52.5L-169,510z M-379,510V405h52.5
	L-379,510z M-484,195h105v52.5L-484,195z M-64,195v105h-52.5L-64,195z M-64,405h-105v-52.5L-64,405z M-484,405V300h52.5L-484,405z"
	/>
<path class="st1" d="M-466.5,142.5c0-19.3,15.7-35,35-35s35,15.7,35,35s-15.7,35-35,35S-466.5,161.8-466.5,142.5 M-151.5,142.5
	c0-19.3,15.7-35,35-35s35,15.7,35,35s-15.7,35-35,35S-151.5,161.8-151.5,142.5 M-151.5,457.5c0-19.3,15.7-35,35-35s35,15.7,35,35
	s-15.7,35-35,35S-151.5,476.8-151.5,457.5 M-466.5,457.5c0-19.3,15.7-35,35-35s35,15.7,35,35s-15.7,35-35,35
	S-466.5,476.8-466.5,457.5 M-341,259c0-14.4,11.6-26,26-26s26,11.6,26,26s-11.6,26-26,26S-341,273.4-341,259 M-259,259
	c0-14.4,11.6-26,26-26s26,11.6,26,26s-11.6,26-26,26S-259,273.4-259,259 M-259,341c0-14.4,11.6-26,26-26s26,11.6,26,26
	s-11.6,26-26,26S-259,355.4-259,341 M-341,341c0-14.4,11.6-26,26-26s26,11.6,26,26s-11.6,26-26,26S-341,355.4-341,341"/>
<path class="st0" d="M195,90h105v52.5L195,90z M405,90v105h-52.5L405,90z M405,510H300v-52.5L405,510z M195,510V405h52.5L195,510z
	 M90,195h105v52.5L90,195z M510,195v105h-52.5L510,195z M510,405H405v-52.5L510,405z M90,405V300h52.5L90,405z"/>
<path class="st1" d="M107.5,142.5c0-19.3,15.7-35,35-35s35,15.7,35,35s-15.7,35-35,35S107.5,161.8,107.5,142.5 M422.5,142.5
	c0-19.3,15.7-35,35-35s35,15.7,35,35s-15.7,35-35,35S422.5,161.8,422.5,142.5 M422.5,457.5c0-19.3,15.7-35,35-35s35,15.7,35,35
	s-15.7,35-35,35S422.5,476.8,422.5,457.5 M107.5,457.5c0-19.3,15.7-35,35-35s35,15.7,35,35s-15.7,35-35,35S107.5,476.8,107.5,457.5
	 M233,259c0-14.4,11.6-26,26-26s26,11.6,26,26s-11.6,26-26,26S233,273.4,233,259 M315,259c0-14.4,11.6-26,26-26s26,11.6,26,26
	s-11.6,26-26,26S315,273.4,315,259 M315,341c0-14.4,11.6-26,26-26s26,11.6,26,26s-11.6,26-26,26S315,355.4,315,341 M233,341
	c0-14.4,11.6-26,26-26s26,11.6,26,26s-11.6,26-26,26S233,355.4,233,341"/>
</svg>
